<svg xmlns="http://www.w3.org/2000/svg" viewBox="0 0 24 24" fill="#ed1c27"><g transform="translate(-30.88 -922.98)"><path d="M42.88,925.8c5.06,0,9.18,4.12,9.18,9.18s-4.12,9.18-9.18,9.18-9.18-4.12-9.18-9.18,4.12-9.18,9.18-9.18M42.88,924.78c-5.63,0-10.2,4.57-10.2,10.2s4.57,10.2,10.2,10.2,10.2-4.57,10.2-10.2-4.57-10.2-10.2-10.2h0Z" /><path d="M42.88,928.91c3.35,0,6.07,2.72,6.07,6.07s-2.72,6.07-6.07,6.07-6.07-2.72-6.07-6.07,2.72-6.07,6.07-6.07M42.88,927.84c-3.94,0-7.14,3.2-7.14,7.14s3.2,7.14,7.14,7.14,7.14-3.2,7.14-7.14-3.2-7.14-7.14-7.14h0Z" /><path d="M44.91,938.56c-.38.39-.91.61-1.6.69v.59s0,.04,0,.07,0,.04,0,.07c-.03.18-.17.32-.35.35-.02,0-.04,0-.06,0s-.04,0-.06,0c-.19-.03-.34-.19-.35-.38,0-.01,0-.02,0-.03s0-.02,0-.03v-.63c-.7-.06-1.24-.31-1.64-.74-.26-.29-.44-.64-.52-1.06-.02-.05-.03-.11-.03-.17,0,0,0,0,0,0,0-.28.22-.5.49-.52.01,0,.02,0,.04,0s.02,0,.04,0c.22.02.4.17.47.37.01.04.02.07.02.11.06.29.18.53.36.71.27.28.66.42,1.16.42s.88-.12,1.16-.35.42-.56.42-.97c0-.34-.12-.63-.36-.87s-.65-.45-1.22-.64c-.8-.24-1.38-.56-1.74-.95s-.55-.89-.55-1.49.18-1.12.54-1.51c.36-.39.85-.63,1.47-.7v-.74s0-.05,0-.07,0-.05,0-.07c.03-.18.17-.32.35-.35.02,0,.04,0,.07,0s.04,0,.07,0h-.07c.23,0,.42.18.42.41v-.06s0,.04,0,.07,0,.04,0,.07v.75c.63.09,1.12.35,1.47.79.24.31.4.7.48,1.16.01.04.02.08.02.13,0,0,0,0,0,0,0,.26-.18.47-.42.52-.03,0-.07,0-.1,0s-.07,0-.1,0h.03c-.21-.03-.38-.18-.43-.38,0,0,0,.02,0,.03-.02-.05-.03-.11-.03-.16,0,0,0,0,0,0-.06-.29-.17-.54-.33-.74-.25-.31-.59-.47-1.02-.47s-.79.12-1.02.35c-.24.23-.35.55-.35.96,0,.38.12.69.37.91.25.23.66.43,1.23.62.57.19,1.02.39,1.34.61.32.22.56.48.71.78.15.3.23.64.23,1.04,0,.63-.19,1.14-.57,1.53Z" /></g></svg>
