<svg xmlns="http://www.w3.org/2000/svg" viewBox="0 0 24 24" fill="#ed1c27"><g transform="translate(-1201.78 1.8)"><path d="M1208.32,14.67c.62-.14,1.25-.24,1.88-.31.11-.27.15-.53.23-.87.14-.6-.16-.76-.66-1.07-.73-.46-1.39-1.07-2.07-1.6.05,1.31.25,2.6.61,3.86Z" /><path d="M1213.78,0c-5.63,0-10.2,4.57-10.2,10.2s4.57,10.2,10.2,10.2,10.2-4.57,10.2-10.2-4.57-10.2-10.2-10.2ZM1213.26,1.97h0c-.57.03-1.12.12-1.65.26.19.11.43.3.52.36-.2.23-1.01.76-1.05,1.05-.02.11.32.3.32.48,0,.28,0,.55-.01.83,0,0,0,.01,0,.02,0,0,.01-.01.02-.02.19-.17.97-.98,1.06-1.01.23-.06.52.05.8.22v2.15c-.23.19-.45.38-.62.53-.41.39-1.22.61-.97,1.19.08.19.49.98.26,1.18-.29.24-.72-.44-.85-.59-.39-.47-1.19-.31-1.79-.32-.02.21-.04.43-.06.64.01.28.06.55.17.79h3.87v.93h-2.98c.63.49,1.25,1.01,1.98,1.33.27.12.63.07,1,.02v5.21c-.04-.09-.09-.18-.19-.26-.4-.33-.77-.67-1.13-1.04-.06-.06-.17-.29-.27-.52-.53.06-1.05.15-1.57.27.37.99.84,1.83,1.36,2.46.47.14.97.24,1.47.29.14-.25.26-.49.32-.72v1.65s-.03,0-.05,0c-.13,0-.25,0-.38-.02-.62-.06-1.22-.19-1.79-.37-.04-.01-.08-.03-.12-.04-.53-.17-1.04-.39-1.53-.65-.26-.14-.51-.29-.76-.46-.5-.34-.95-.74-1.37-1.16-.04-.04-.08-.09-.12-.13.39.31.8.6,1.25.84-.29-.5-.53-1.03-.72-1.58-.32.09-.63.2-.94.32-.02-.02-.04-.04-.06-.06-.02-.03-.04-.06-.06-.08-.13-.16-.26-.33-.38-.51-.02-.03-.05-.06-.07-.1.4-.17.81-.32,1.23-.44-.4-1.42-.61-2.89-.63-4.37h-2.16c0-.11-.02-.23-.02-.34,0-.16.02-.31.02-.46,0-.04,0-.08,0-.13h1.99c-.1-.39-.18-.82-.4-1.14-.63-.91-.58-1.61-.51-2.63.03-.06.07-.11.1-.17.03-.06.07-.12.1-.17.03-.05.05-.1.08-.14,0-.02.02-.03.03-.05.14-.23.3-.45.46-.66.04-.06.08-.11.13-.17,0-.01.02-.02.03-.03.14-.18.29-.34.45-.51.05-.06.1-.12.15-.17,0,0,.02-.02.03-.03,0-.01.02-.02.03-.03.02-.02.04-.04.06-.05.05-.05.12-.1.17-.15.17-.16.35-.32.54-.47.05-.04.11-.08.17-.13.21-.16.43-.32.66-.46.02,0,.03-.02.05-.03.05-.03.1-.06.15-.08.14-.08.28-.17.42-.25.23-.12.46-.24.7-.34.24-.1.48-.19.73-.27.04-.01.07-.03.11-.04.57-.18,1.17-.3,1.79-.37.13-.01.26-.01.4-.02.01,0,.02,0,.03,0v.93ZM1220.95,4.44c.13.16.22.33.34.5.06.09.12.17.18.26.13.21.26.41.38.63.08.16.16.32.23.48.06.12.12.24.17.36.09.21.17.43.24.65.02.05.04.1.06.16.03.11.06.22.09.34.09.34.16.69.22,1.05.02.14.05.27.06.4,0,.04,0,.09,0,.13.01.12.04.24.05.35h-3.67c-.02-1.48-.24-2.95-.63-4.37.08-.02.17-.06.25-.09.7-.22,1.38-.49,2.02-.84,0,0,.02,0,.03-.01ZM1217.28,1.67l.12.05c.24.1.48.22.72.34l.1.05c.24.13.48.27.7.42l.06.04c.24.16.46.33.69.52.22.18.43.38.64.59l.04.04s-.03.01-.04.02c-.58.29-1.19.53-1.82.71-.04.01-.07.03-.11.04-.19-.55-.43-1.08-.72-1.58-.29-.51-.64-.99-1.03-1.44-.02-.02-.04-.05-.05-.07.24.08.48.16.71.26ZM1214.28,2.97v-1.92s.02,0,.04,0c.64.16,1.24.59,1.77,1.24.52.63.98,1.46,1.35,2.44-1.04.23-2.1.35-3.16.38v-2.14ZM1214.28,6.03c1.16-.03,2.32-.17,3.45-.42.39,1.35.6,2.73.63,4.13h-4.08v-3.71ZM1214.28,11.97v-1.31h4.08c-.03,1.21-.19,2.4-.48,3.57-.05.19-.09.37-.14.56-1.13-.26-2.29-.4-3.45-.42v-2.4ZM1214.34,19.35s-.03.01-.05.02h0v-4.07c1.06.03,2.12.15,3.16.38-.19.5-.4.95-.63,1.37-.22.39-.46.74-.71,1.05-.53.65-1.13,1.09-1.77,1.25ZM1220.29,16.71c-.2.21-.41.4-.64.59s-.45.36-.69.52l-.06.04c-.23.15-.46.29-.7.42l-.1.05c-.23.12-.47.24-.72.34l-.12.05c-.23.1-.47.18-.71.26.02-.02.04-.05.06-.07.39-.45.74-.94,1.04-1.45.28-.49.52-1.01.71-1.56.34.1.67.21,1,.34.31.12.62.26.93.41.01,0,.03.01.04.02l-.04.04ZM1222.91,11.03c-.01.15-.04.29-.06.44-.06.42-.14.84-.26,1.24-.03.11-.06.21-.09.32-.34,1.06-.85,2.06-1.55,2.94-.01,0-.02,0-.03-.02-.29-.15-.58-.29-.88-.41-.45-.19-.91-.37-1.38-.51.4-1.42.61-2.89.63-4.37h3.67c0,.12-.04.24-.05.36Z" /></g></svg>
