<svg xmlns="http://www.w3.org/2000/svg" viewBox="0 0 24 24" fill="#ed1c27"><g transform="translate(-1198.1 -2180.205)"><path d="M1208.59,2198.36c-.29,0-.57-.11-.8-.32l-3.15-2.93-2.65-.03c-.65,0-1.18-.53-1.18-1.18v-3.66c0-.65.53-1.17,1.17-1.17h2.59l3.23-2.87c.35-.31.84-.39,1.27-.2.43.19.7.6.7,1.08v10.1c0,.48-.27.89-.71,1.08-.16.07-.32.1-.48.1ZM1201.99,2190.14c-.06,0-.1.04-.1.1v3.66c0,.06.05.11.11.11h2.58c.3,0,.58.11.8.31l3.15,2.93s.07.04.12.02c.04-.02.07-.05.07-.1v-10.1s-.02-.08-.06-.1c-.05-.02-.08-.01-.12.02l-3.16,2.84c-.22.19-.5.3-.79.3h-2.59Z" /><path d="M1212.6,2201.01c-.23,0-.45-.15-.52-.39-.08-.29.09-.58.37-.66,3.46-.97,5.87-4.15,5.87-7.74s-2.45-6.83-5.97-7.76c-.29-.08-.46-.37-.38-.66.08-.28.37-.46.66-.38,3.98,1.06,6.76,4.68,6.76,8.8s-2.74,7.67-6.65,8.77c-.05.01-.1.02-.14.02Z" /><path d="M1212.26,2187.91v8.6s6.01-3.96,0-8.6Z" /></g></svg>
