<svg xmlns="http://www.w3.org/2000/svg" viewBox="0 0 24 24" fill="#ed1c27"><g transform="translate(-30.885 -1208.74)"><path d="M47.4,1229.25h-5c-1.88,0-3.41-1.53-3.41-3.41s1.53-3.41,3.41-3.41h5c-1.22.65-2.05,1.93-2.05,3.41s.83,2.76,2.05,3.41Z" /><polygon points="49.19 1222.42 49.19 1222.42 49.19 1222.42 49.19 1222.42" /><path d="M51.59,1228.24c-.08.08-.17.14-.25.21.08-.07.18-.13.25-.21Z" /><path d="M46.37,1223.91c.06-.09.13-.16.2-.24-.07.08-.14.16-.2.24Z" /><path d="M46.79,1223.41c.08-.08.17-.14.25-.21-.08.07-.18.13-.25.21Z" /><path d="M47.3,1222.99c.09-.06.19-.1.29-.16-.1.05-.2.09-.29.16Z" /><path d="M47.88,1222.68c.1-.04.2-.06.3-.09-.1.03-.2.05-.3.09Z" /><path d="M46.06,1224.48c.04-.09.1-.17.14-.26-.05.09-.1.17-.14.26Z" /><path d="M51.08,1228.66c-.09.06-.19.1-.29.16.1-.05.2-.09.29-.16Z" /><path d="M50.5,1228.97c-.1.04-.2.06-.3.09.1-.03.21-.05.3-.09Z" /><path d="M48.51,1222.49c.1-.02.21-.02.31-.03-.1.01-.21.01-.31.03Z" /><path d="M49.86,1229.16c-.1.02-.21.02-.32.03.11-.01.21-.01.32-.03Z" /><path d="M45.86,1225.12c.02-.07.05-.14.07-.21-.02.07-.05.14-.07.21Z" /><path d="M52.32,1227.17c-.04.1-.1.19-.15.28.05-.09.11-.18.15-.28Z" /><path d="M52,1227.74c-.06.09-.14.16-.2.24.07-.08.14-.16.2-.24Z" /><path d="M52.53,1225.16c-.27-1.36-1.35-2.42-2.71-2.67,1.36.26,2.44,1.32,2.71,2.67Z" /><path d="M52.52,1226.53c-.02.09-.06.18-.08.27.03-.09.06-.17.08-.27Z" /><path d="M49.19,1229.23c.12,0,.24-.02.36-.04-.13.01-.25.04-.38.04,0,0,.01,0,.02,0Z" /><path d="M45.78,1225.81c0-.23.03-.46.07-.68-.05.22-.07.45-.07.68Z" /><path d="M49.21,1222.42c.21,0,.41.03.61.07-.2-.04-.4-.06-.61-.07,0,0-.01,0-.02,0h0s.01,0,.02,0Z" /><path d="M51.8,1227.99c-.07.09-.14.18-.21.26.08-.08.14-.17.21-.26Z" /><path d="M50.79,1228.81c-.1.05-.19.11-.29.16.1-.04.19-.1.29-.16Z" /><path d="M49.19,1222.42c-.12,0-.24.02-.36.04.12-.01.24-.03.36-.03h0Z" /><path d="M51.33,1228.45c-.08.07-.16.15-.25.21.09-.06.17-.14.25-.21Z" /><path d="M50.2,1229.06c-.11.04-.22.08-.34.1.12-.02.22-.07.34-.1Z" /><path d="M45.92,1224.91c.04-.14.08-.29.13-.42-.06.14-.09.28-.13.42Z" /><path d="M47.05,1223.2c.08-.07.16-.14.25-.2-.09.06-.17.14-.25.2Z" /><path d="M52.44,1226.8c-.04.12-.07.25-.12.37.05-.12.08-.25.12-.37Z" /><path d="M47.58,1222.84c.1-.05.19-.11.29-.16-.1.04-.19.1-.29.16Z" /><path d="M48.17,1222.59c.11-.04.22-.08.34-.1-.12.02-.23.07-.34.1Z" /><path d="M52.59,1225.85c0,.23-.03.46-.07.68.05-.22.07-.45.07-.68Z" /><path d="M46.2,1224.22c.06-.11.11-.22.17-.32-.07.1-.12.21-.17.32Z" /><path d="M46.58,1223.67c.07-.09.14-.18.22-.26-.08.08-.14.17-.22.26Z" /><path d="M52.17,1227.45c-.05.1-.1.2-.16.3.06-.09.11-.2.16-.3Z" /><path d="M52,1227.74c.06-.09.11-.2.16-.3.05-.09.11-.18.15-.28.05-.12.08-.25.12-.37.03-.09.06-.17.08-.27.05-.22.07-.45.07-.68,0-.24-.02-.46-.07-.69-.27-1.36-1.35-2.42-2.71-2.67-.2-.04-.4-.06-.61-.07,0,0-.01,0-.02,0l.02.43c1.64,0,2.96,1.35,2.95,2.99,0,1.63-1.34,2.95-2.99,2.95-1.64,0-2.96-1.35-2.95-2.99,0-1.63,1.34-2.95,2.97-2.95v-.43c-.12,0-.24.02-.36.03-.1.01-.21.01-.31.03-.12.02-.23.07-.34.1-.1.03-.2.05-.3.09-.1.04-.19.1-.29.16-.1.05-.2.09-.29.16-.09.06-.17.14-.25.2-.08.07-.18.13-.25.21-.08.08-.14.17-.22.26-.07.08-.14.16-.2.24-.07.1-.12.21-.17.32-.05.09-.1.17-.14.26-.06.14-.09.28-.13.42-.02.07-.05.14-.07.21-.05.22-.07.45-.07.68-.01,1.88,1.51,3.41,3.39,3.43.13,0,.25-.02.38-.04.11-.01.21-.01.32-.03.12-.02.22-.07.34-.1.1-.03.21-.05.3-.09.1-.04.19-.1.29-.16.1-.05.2-.1.29-.16.09-.06.17-.14.25-.21.08-.07.18-.13.25-.21.08-.08.14-.17.21-.26.07-.08.14-.16.2-.24Z" /><path d="M37.05,1224.87h-1.93c-1.34,0-2.43-1.09-2.43-2.43v-7.78c0-1.34,1.09-2.43,2.43-2.43h15.53c1.34,0,2.43,1.09,2.43,2.43v6.81c0,.27-.22.49-.49.49s-.49-.22-.49-.49v-6.81c0-.8-.65-1.46-1.46-1.46h-15.53c-.8,0-1.46.65-1.46,1.46v7.78c0,.8.65,1.46,1.46,1.46h1.93c.27,0,.49.22.49.49s-.22.49-.49.49Z" /><path d="M41.25,1221.95h-6.13c-.27,0-.49-.22-.49-.49s.22-.49.49-.49h6.13c.27,0,.49.22.49.49s-.22.49-.49.49Z" /><path d="M42.27,1220.01h-7.16c-.27,0-.49-.22-.49-.49s.22-.49.49-.49h7.16c.27,0,.49.22.49.49s-.22.49-.49.49Z" /></g></svg>
