<svg xmlns="http://www.w3.org/2000/svg" viewBox="0 0 24 24" fill="#ed1c27"><g transform="translate(-30.885 -4459.435)"><g><path d="M42.08,4479.51h-6.8c-1.27,0-2.3-1.03-2.3-2.3v-13.61c0-1.27,1.03-2.3,2.3-2.3h13.61c1.27,0,2.3,1.03,2.3,2.3v7.07c0,.3-.24.54-.54.54s-.54-.24-.54-.54v-7.07c0-.68-.55-1.23-1.23-1.23h-13.61c-.68,0-1.23.55-1.23,1.23v13.61c0,.68.55,1.23,1.23,1.23h6.8c.3,0,.54.24.54.54s-.24.54-.54.54Z" /><path d="M47.45,4469.57c-.2,0-.4-.08-.56-.23-1.33-1.29-3.08-2.01-4.94-2.01s-3.58.7-4.9,1.97c-.32.31-.83.3-1.14-.02-.31-.32-.3-.83.02-1.14,1.63-1.56,3.76-2.42,6.02-2.42s4.43.87,6.06,2.46c.32.31.32.82.02,1.14-.16.16-.37.24-.58.24Z" /><path d="M44.04,4471.68c.07.06.16.09.24.12.32-.25.67-.47,1.04-.65.03-.27-.06-.55-.29-.74-.88-.68-1.97-1.06-3.07-1.06-1.47,0-2.86.64-3.82,1.77-.29.34-.25.85.09,1.13.15.13.34.19.52.19.23,0,.45-.1.61-.28,1.13-1.33,3.3-1.56,4.68-.48Z" /><path d="M42.88,4473.37c-.23-.26-.56-.43-.93-.43-.7,0-1.27.57-1.27,1.27s.57,1.27,1.27,1.27c.07,0,.13-.03.19-.04.11-.75.37-1.45.74-2.07Z" /></g><path d="M47.97,4471.93c-2.66,0-4.82,2.15-4.82,4.82s2.16,4.82,4.82,4.82,4.82-2.16,4.82-4.82-2.15-4.82-4.82-4.82ZM45.5,4479.35s-.04,0-.05,0c-.07-.01-.11-.08-.09-.14l.27-1.21,1.06,1.06-1.19.29ZM46.98,4478.77l-1.06-1.06,2.69-2.69,1.06,1.06-2.69,2.69ZM50.48,4475.27l-.53.53-1.06-1.06.45-.45c.18-.18.48-.18.67,0l.47.47s0,0,0,0c.14.14.14.37,0,.51Z" /></g></svg>
