<svg xmlns="http://www.w3.org/2000/svg" viewBox="76.9 6409.1 112.4 14.2" width="112.4" height="14.2"><g><path d="M79.88,6412.65h2.63c1.44,0,2.14.73,2.14,1.76,0,.93-.6,1.48-1.19,1.71,1.25.18,1.75.93,1.75,1.85,0,1.25-.91,2.23-2.65,2.23h-2.68v-7.55ZM83.58,6414.56c0-.69-.43-1-1.21-1h-1.44v2.32h1.5c.9,0,1.14-.81,1.14-1.32ZM82.66,6419.28c.92,0,1.46-.5,1.46-1.34s-.46-1.17-1.4-1.17h-1.79v2.51h1.73Z" /><path d="M89.43,6419.05c-.3.82-.97,1.26-1.82,1.26-.77,0-1.42-.42-1.42-1.33,0-1.83,2.27-1.56,3.18-2.3-.01-1-.66-1.23-1.4-1.23-.48,0-1.01.12-1.53.23v-.88c.58-.18,1.13-.28,1.63-.28,1.31,0,2.23.66,2.23,2.28v1.62c0,.52.01,1.02.11,1.77h-.66c-.15-.35-.26-.66-.33-1.14ZM87.82,6419.5c.71,0,1.55-.65,1.55-1.63v-.4c-.91.64-2.22.4-2.22,1.42,0,.41.26.61.68.61Z" /><path d="M94.65,6415.45c-.48,0-1.03.17-1.53.46v4.29h-1.01v-3.75c0-.54-.01-1.1-.07-1.8h.66c.16.25.25.51.32.84.41-.59,1.08-.95,1.85-.95,1.07,0,1.94.58,1.94,2.12v3.55h-1.01v-3.53c0-.89-.48-1.22-1.15-1.22Z" /><path d="M98.22,6417.41c0-1.85,1.09-2.88,2.68-2.88.36,0,.74.05,1.13.15v.88c-.37-.07-.72-.11-1.02-.11-1.14,0-1.81.51-1.81,1.98s.66,1.96,1.8,1.96c.31,0,.66-.03,1.03-.1v.87c-.41.1-.8.15-1.18.15-1.57,0-2.64-.93-2.64-2.9Z" /><path d="M102.89,6417.48c0-1.53.83-2.94,2.65-2.94s2.55,1.36,2.55,2.84-.83,2.94-2.65,2.94-2.55-1.36-2.55-2.84ZM107.11,6417.41c0-1.28-.55-2.03-1.62-2.03s-1.61.77-1.61,2.05.55,2.03,1.62,2.03,1.61-.77,1.61-2.05Z" /><path d="M112.18,6420.2v-7.55h2.34c2.72,0,3.73,1.77,3.73,3.76s-1.09,3.79-3.89,3.79h-2.18ZM114.47,6419.28c1.71,0,2.7-.88,2.7-2.85s-.96-2.86-2.71-2.86h-1.22v5.71h1.23Z" /><path d="M122.69,6419.05c-.3.82-.97,1.26-1.82,1.26-.77,0-1.42-.42-1.42-1.33,0-1.83,2.27-1.56,3.18-2.3-.01-1-.66-1.23-1.4-1.23-.48,0-1.01.12-1.53.23v-.88c.58-.18,1.13-.28,1.63-.28,1.31,0,2.23.66,2.23,2.28v1.62c0,.52.01,1.02.11,1.77h-.66c-.15-.35-.26-.66-.33-1.14ZM121.08,6419.5c.71,0,1.55-.65,1.55-1.63v-.4c-.91.64-2.22.4-2.22,1.42,0,.41.26.61.68.61Z" /><path d="M124.5,6414.65h1.01c.25,1.14.93,3.46,1.45,4.94.53-1.49,1.2-3.77,1.46-4.94h1.01c-.47,1.79-1.13,3.82-1.82,5.55h-1.29c-.71-1.73-1.35-3.76-1.81-5.55Z" /><path d="M131.01,6415.44h-.92v-.79h1.92v5.55h-1v-4.76ZM130.8,6412.85c0-.48.37-.71.71-.71s.7.23.7.71-.37.69-.7.69-.71-.22-.71-.69Z" /><path d="M133.12,6414.65h1.01c.25,1.14.93,3.46,1.45,4.94.53-1.49,1.2-3.77,1.46-4.94h1.01c-.47,1.79-1.13,3.82-1.82,5.55h-1.29c-.71-1.73-1.35-3.76-1.81-5.55Z" /><path d="M139.62,6415.44h-.92v-.79h1.92v5.55h-1v-4.76ZM139.41,6412.85c0-.48.37-.71.71-.71s.7.23.7.71-.37.69-.7.69-.71-.22-.71-.69Z" /><path d="M142.05,6417.45c0-1.98,1.26-2.92,2.49-2.92,1.49,0,2.17,1,2.17,2.31,0,.21-.02.43-.05.67h-3.63c.01,1.46.83,1.89,1.89,1.89.52,0,1.1-.11,1.69-.23v.87c-.6.18-1.21.29-1.77.29-1.57,0-2.79-.81-2.79-2.86ZM145.73,6416.78v-.06c0-.67-.28-1.37-1.21-1.37-.69,0-1.27.39-1.44,1.43h2.65Z" /><path d="M150.72,6415.45c-.48,0-1.03.17-1.53.46v4.29h-1.01v-3.75c0-.54-.01-1.1-.07-1.8h.66c.16.25.25.51.32.84.41-.59,1.08-.95,1.85-.95,1.07,0,1.94.58,1.94,2.12v3.55h-1.01v-3.53c0-.89-.48-1.22-1.15-1.22Z" /><path d="M154.29,6417.57c0-2.22,1.35-3.04,2.64-3.04.41,0,.81.1,1.19.33v-2.59h1.01v6.14c0,.54.01,1.04.11,1.79h-.66c-.14-.32-.25-.59-.33-1.05-.26.55-.86,1.17-1.83,1.17-1.43,0-2.12-1.13-2.12-2.74ZM156.63,6419.39c.57,0,1.15-.3,1.48-.72v-3.08c-.37-.14-.75-.21-1.15-.21-.9,0-1.68.43-1.68,2.22,0,1.18.44,1.79,1.36,1.79Z" /><path d="M163.75,6419.05c-.3.82-.97,1.26-1.82,1.26-.77,0-1.42-.42-1.42-1.33,0-1.83,2.27-1.56,3.18-2.3-.01-1-.66-1.23-1.4-1.23-.48,0-1.01.12-1.53.23v-.88c.58-.18,1.13-.28,1.63-.28,1.31,0,2.23.66,2.23,2.28v1.62c0,.52.01,1.02.11,1.77h-.66c-.15-.35-.26-.66-.33-1.14ZM162.14,6419.5c.71,0,1.55-.65,1.55-1.63v-.4c-.91.64-2.22.4-2.22,1.42,0,.41.26.61.68.61Z" /><path d="M168.32,6419.92v-.93c.65.26,1.35.4,1.97.4,1,0,1.79-.36,1.79-1.18,0-.68-.73-1.01-1.54-1.38-.98-.45-2.1-.95-2.1-2.22,0-1.55,1.33-2.09,2.83-2.09.52,0,1.07.07,1.58.18v.93c-.57-.12-1.13-.19-1.62-.19-1.02,0-1.75.3-1.75,1.05,0,.69.73,1.03,1.54,1.4,1,.46,2.12.96,2.12,2.26,0,1.55-1.36,2.16-2.81,2.16-.7,0-1.42-.14-2.01-.39Z" /><path d="M174.5,6419.53c0-.45.33-.77.78-.77s.77.33.77.77-.33.78-.77.78-.78-.33-.78-.78Z" /><path d="M179.76,6412.65h1.31c1.01,2.47,1.79,5.03,2.45,7.55h-1.02c-.15-.64-.31-1.27-.48-1.91h-3.22c-.17.64-.33,1.27-.48,1.91h-1.02c.66-2.52,1.44-5.08,2.45-7.55ZM181.78,6417.43c-.39-1.4-.86-2.79-1.37-4.15-.51,1.37-.97,2.75-1.37,4.15h2.73Z" /><path d="M184.77,6419.53c0-.45.33-.77.78-.77s.77.33.77.77-.33.78-.77.78-.78-.33-.78-.78Z" /></g></svg>